PathFileType	4	(x/y/z)	S04_PSF_T07.trc
DataRate	CameraRate	NumFrames	NumMarkers	Units	OrigDataRate	OrigDataStartFrame	OrigNumFrames
240	240	9	51	mm	240	267	427
Frame#	Time	Sternum			R.Acromium			L.Acromium			Top.Head			R.ASIS			L.ASIS			R.PSIS			L.PSIS			R.Great.Tro			L.Great.Tro			R.Iliac.Crest			L.Iliac.Crest			V.Sacral			R.Thigh.Upper.Post			R.Thigh.Lower.Ant			R.Thigh.Lower.Post			R.Thigh.Upper.Ant			R.Knee.Lat			R.Knee.Med			R.Shank.Upper.Post			R.Shank.Lower.Ant			R.Shank.Lower.Post			R.Shank.Upper.Ant			R.Ankle.Lat			R.Ankle.Med			R.Heel.Upper			R.Heel.Med			R.Heel.Lat			R.Toe.Lat			R.Toe.Med			R.Toe.Tip			L.Thigh.Upper.Post			L.Thigh.Lower.Ant			L.Thigh.Lower.Post			L.Thigh.Upper.Ant			L.Knee.Lat			L.Knee.Med			L.Shank.Upper.Post			L.Shank.Lower.Ant			L.Shank.Lower.Post			L.Shank.Upper.Ant			L.Ankle.Lat			L.Ankle.Med			L.Heel.Upper			L.Heel.Med			L.Heel.Lat			L.Toe.Lat			L.Toe.Med			L.Toe.Tip			Cervical.Spine			Back			
		X1	Y1	Z1	X2	Y2	Z2	X3	Y3	Z3	X4	Y4	Z4	X5	Y5	Z5	X6	Y6	Z6	X7	Y7	Z7	X8	Y8	Z8	X9	Y9	Z9	X10	Y10	Z10	X11	Y11	Z11	X12	Y12	Z12	X13	Y13	Z13	X14	Y14	Z14	X15	Y15	Z15	X16	Y16	Z16	X17	Y17	Z17	X18	Y18	Z18	X19	Y19	Z19	X20	Y20	Z20	X21	Y21	Z21	X22	Y22	Z22	X23	Y23	Z23	X24	Y24	Z24	X25	Y25	Z25	X26	Y26	Z26	X27	Y27	Z27	X28	Y28	Z28	X29	Y29	Z29	X30	Y30	Z30	X31	Y31	Z31	X32	Y32	Z32	X33	Y33	Z33	X34	Y34	Z34	X35	Y35	Z35	X36	Y36	Z36	X37	Y37	Z37	X38	Y38	Z38	X39	Y39	Z39	X40	Y40	Z40	X41	Y41	Z41	X42	Y42	Z42	X43	Y43	Z43	X44	Y44	Z44	X45	Y45	Z45	X46	Y46	Z46	X47	Y47	Z47	X48	Y48	Z48	X49	Y49	Z49	X50	Y50	Z50	X51	Y51	Z51	

267	1.1083	9.5092	1251.8	292.76	-93.58	1481.1	478.44	-129.09	1468.8	129.75	-84.665	1807.9	288.57	-37.524	967.6	443.89	-22.075	986.05	194.79	-240.44	1012.5	327.63	-228.03	1012.8	247.71	-143.56	896.6	497.69	-126.36	900.76	119.13	-118.55	1064.5	478.31	-124.91	1068.8	142.72	-256.28	971.6	287.28	-215.39	654.89	476.55	-165.51	556.57	438.57	-239.38	568.34	460.78	-126.34	658.15	463.25	-243.28	494.2	446.48	-264.78	501.52	319.93	-383.88	301.31	433.94	-341.97	209.24	387.69	-404.6	235.83	412.4	-323.74	274.66	415.75	-425.57	122.7	385.86	-410.35	136.85	298.8	-499.42	102.69	331.73	-495.13	71.707	301.58	-499	70.23	365.94	-333.32	38.956	413.42	-296.8	36.999	293.72	-231.67	43.652	341.64	-65.807	661.76	131.6	45.549	602.78	132.28	-23.435	584	146.86	-1.5886	678.24	113.72	53.146	514.88	151.31	69.252	509.26	276.9	55.658	317.08	160.44	157.46	272.91	151.79	97.708	251.32	166.13	115.88	337.46	145.21	220.23	123.51	171	226.57	142.96	261.68	173.85	60.276	221.53	195.62	46.48	258.18	192.98	37.006	196.6	352.26	122.01	146.82	377.16	156.34	257.71	416.65	192.31	205.58	-158.85	1530.5	313.72	-249.36	1276.3	301.26
268	1.1125	15.411	1251	292.25	-87.517	1480.5	477.93	-123.43	1468	129.27	-78.808	1807.2	287.93	-31.651	966.94	443.69	-15.884	985.38	194.48	-234.44	1011.7	327.11	-221.99	1012.1	247.19	-137.91	896.03	497.4	-120.06	900.03	118.82	-112.66	1063.8	477.97	-119.02	1068	142.41	-250.23	970.83	286.75	-210.33	654.59	476.4	-160.69	556.09	438.53	-234.54	568.1	460.63	-121.27	657.61	463.18	-238.8	493.9	446.38	-260.03	501.26	319.85	-381.1	302.17	434.06	-340.07	209.68	387.81	-402.45	236.86	412.53	-321.19	274.93	415.83	-424.57	123.89	386.12	-408.98	137.86	299.01	-498.55	104.53	332.04	-494.57	73.613	301.79	-498.44	71.962	366.16	-333.06	39.022	413.49	-296.66	37.071	293.8	-231.45	43.399	341.63	-59.409	661.19	131.67	51.962	602.28	132.75	-17.046	583.46	147.09	4.8216	677.69	113.99	59.471	514.31	151.63	75.264	508.75	277.26	61.608	316.43	160.9	163.32	272.1	152.41	103.54	250.62	166.72	121.87	336.69	145.71	225.78	122.74	171.79	232.27	142.3	262.47	179.56	59.694	222.5	201.42	45.902	259.1	198.6	36.408	197.54	357.68	121.48	147.33	382.8	155.87	258.14	422.12	191.89	205.88	-153	1529.8	313.24	-243.5	1275.6	301
269	1.1167	21.336	1250.4	291.72	-81.445	1479.9	477.41	-117.76	1467.2	128.78	-72.951	1806.6	287.28	-25.741	966.29	443.48	-9.6516	984.73	194.17	-228.39	1011	326.59	-215.91	1011.4	246.67	-132.2	895.46	497.1	-113.71	899.35	118.5	-106.74	1063.1	477.61	-113.08	1067.2	142.09	-244.15	970.1	286.21	-205.16	654.28	476.24	-155.74	555.61	438.5	-229.59	567.85	460.48	-116.11	657.08	463.09	-234.19	493.58	446.28	-255.13	500.97	319.77	-378.22	303.06	434.2	-338.09	210.14	387.94	-400.22	237.93	412.68	-318.57	275.21	415.91	-423.52	125.15	386.4	-407.54	138.93	299.25	-497.62	106.44	332.37	-493.96	75.61	302.01	-497.84	73.778	366.4	-332.79	39.092	413.56	-296.52	37.15	293.87	-231.23	43.157	341.62	-52.869	660.68	131.71	58.53	601.87	133.25	-10.508	583	147.31	11.38	677.23	114.29	65.929	513.79	151.95	81.377	508.3	277.6	67.41	315.84	161.32	168.96	271.19	153.05	109.11	249.92	167.28	127.74	335.88	146.23	230.85	121.82	172.59	237.48	141.46	263.28	184.66	59.102	223.45	206.55	45.251	259.99	203.56	35.769	198.44	362.61	120.58	147.94	387.96	154.94	258.69	427.19	190.96	206.33	-147.14	1529.2	312.76	-237.62	1274.9	300.73
270	1.1208	27.284	1249.7	291.18	-75.364	1479.3	476.88	-112.09	1466.5	128.28	-67.094	1805.9	286.62	-19.79	965.67	443.25	-3.375	984.13	193.86	-222.31	1010.3	326.05	-209.79	1010.7	246.14	-126.45	894.91	496.79	-107.3	898.72	118.17	-100.78	1062.5	477.25	-107.1	1066.5	141.77	-238.03	969.4	285.66	-199.89	653.96	476.06	-150.67	555.13	438.47	-224.52	567.58	460.31	-110.85	656.56	462.99	-229.44	493.24	446.17	-250.09	500.66	319.69	-375.24	303.98	434.34	-336.04	210.63	388.09	-397.9	239.04	412.83	-315.85	275.52	416.01	-422.42	126.46	386.71	-406.03	140.05	299.51	-496.63	108.44	332.71	-493.31	77.701	302.24	-497.19	75.681	366.65	-332.5	39.167	413.64	-296.39	37.236	293.95	-231.01	42.927	341.6	-46.196	660.24	131.72	65.236	601.55	133.76	-3.8353	582.61	147.5	18.077	676.86	114.62	72.508	513.33	152.27	87.574	507.9	277.92	73.074	315.3	161.71	174.4	270.2	153.7	114.44	249.23	167.81	133.5	335.04	146.75	235.49	120.78	173.4	242.22	140.45	264.11	189.18	58.517	224.36	211.04	44.543	260.84	207.89	35.105	199.29	367.09	119.34	148.64	392.64	153.56	259.37	431.89	189.53	206.95	-141.27	1528.5	312.26	-231.72	1274.2	300.45
271	1.125	33.256	1249.1	290.62	-69.278	1478.8	476.34	-106.42	1465.7	127.76	-61.235	1805.3	285.95	-13.8	965.07	443.03	2.9473	983.56	193.54	-216.17	1009.6	325.51	-203.62	1010	245.59	-120.65	894.36	496.46	-100.84	898.14	117.83	-94.778	1061.9	476.88	-101.07	1065.8	141.45	-231.88	968.74	285.1	-194.52	653.62	475.88	-145.48	554.64	438.45	-219.33	567.29	460.14	-105.51	656.05	462.87	-224.55	492.88	446.07	-244.89	500.32	319.61	-372.16	304.93	434.48	-333.91	211.14	388.24	-395.48	240.2	413	-313.06	275.86	416.12	-421.26	127.83	387.05	-404.44	141.22	299.79	-495.57	110.54	333.06	-492.59	79.89	302.48	-496.48	77.677	366.9	-332.19	39.248	413.72	-296.25	37.326	294.03	-230.79	42.706	341.57	-39.403	659.87	131.72	72.066	601.31	134.29	2.9553	582.29	147.67	24.9	676.57	114.97	79.191	512.92	152.59	93.838	507.55	278.22	78.612	314.83	162.06	179.65	269.14	154.36	119.56	248.54	168.32	139.18	334.19	147.28	239.72	119.64	174.21	246.54	139.29	264.96	193.17	57.958	225.23	214.93	43.796	261.64	211.63	34.437	200.09	371.16	117.79	149.43	396.9	151.77	260.17	436.26	187.64	207.73	-135.41	1527.9	311.75	-225.8	1273.5	300.15
272	1.1292	39.253	1248.6	290.04	-63.188	1478.2	475.78	-100.75	1465	127.23	-55.376	1804.7	285.29	-7.7671	964.48	442.79	9.3164	983.04	193.23	-209.99	1008.9	324.96	-197.4	1009.5	245.04	-114.8	893.82	496.12	-94.312	897.62	117.48	-88.742	1061.3	476.51	-94.985	1065.1	141.12	-225.68	968.12	284.52	-189.05	653.27	475.68	-140.15	554.15	438.42	-214.01	566.97	459.95	-100.07	655.55	462.75	-219.52	492.5	445.96	-239.55	499.95	319.52	-368.97	305.92	434.62	-331.69	211.68	388.41	-392.98	241.4	413.17	-310.17	276.22	416.24	-420.05	129.26	387.4	-402.79	142.45	300.09	-494.43	112.73	333.42	-491.8	82.182	302.73	-495.71	79.772	367.17	-331.88	39.337	413.81	-296.1	37.422	294.11	-230.58	42.495	341.54	-32.506	659.57	131.69	79.001	601.14	134.84	9.8452	582.04	147.81	31.834	676.36	115.34	85.961	512.55	152.91	100.15	507.23	278.5	84.037	314.41	162.35	184.74	268.02	155.03	124.48	247.87	168.78	144.76	333.32	147.81	243.6	118.41	175.01	250.46	138	265.81	196.68	57.443	226.05	218.26	43.032	262.38	214.84	33.785	200.82	374.85	115.95	150.3	400.77	149.59	261.08	440.33	185.31	208.67	-129.54	1527.3	311.23	-219.85	1272.9	299.84
273	1.1333	45.274	1248	289.44	-57.096	1477.7	475.21	-95.073	1464.4	126.69	-49.515	1804.2	284.62	-1.692	963.92	442.55	15.733	982.57	192.91	-203.77	1008.3	324.41	-191.14	1008.9	244.48	-108.9	893.29	495.78	-87.723	897.16	117.13	-82.668	1060.8	476.13	-88.841	1064.4	140.79	-219.44	967.55	283.94	-183.48	652.9	475.48	-134.69	553.66	438.4	-208.56	566.64	459.76	-94.529	655.05	462.61	-214.35	492.1	445.86	-234.06	499.55	319.44	-365.68	306.94	434.76	-329.39	212.25	388.58	-390.37	242.65	413.34	-307.18	276.62	416.37	-418.76	130.76	387.78	-401.05	143.74	300.41	-493.2	115.02	333.79	-490.94	84.582	302.98	-494.88	81.973	367.44	-331.54	39.437	413.89	-295.96	37.523	294.19	-230.37	42.291	341.5	-25.52	659.32	131.64	86.02	601.03	135.39	16.814	581.84	147.92	38.863	676.21	115.73	92.8	512.22	153.23	106.48	506.95	278.76	89.363	314.05	162.59	189.68	266.87	155.71	129.24	247.21	169.19	150.27	332.45	148.33	247.16	117.12	175.8	254.03	136.61	266.67	199.75	56.993	226.8	221.09	42.272	263.06	217.56	33.168	201.49	378.21	113.87	151.26	404.28	147.06	262.1	444.14	182.59	209.76	-123.68	1526.7	310.7	-213.89	1272.2	299.52
274	1.1375	51.319	1247.6	288.84	-51.007	1477.2	474.63	-89.394	1463.7	126.14	-43.652	1803.7	283.94	4.4258	963.39	442.3	22.199	982.14	192.61	-197.5	1007.7	323.86	-184.83	1008.4	243.91	-102.95	892.77	495.42	-81.068	896.76	116.77	-76.556	1060.2	475.75	-82.632	1063.8	140.45	-213.16	967.02	283.35	-177.79	652.52	475.26	-129.08	553.16	438.38	-202.98	566.28	459.55	-88.884	654.55	462.46	-209.02	491.67	445.76	-228.4	499.12	319.35	-362.27	308	434.9	-326.98	212.86	388.76	-387.65	243.95	413.51	-304.1	277.05	416.52	-417.41	132.33	388.18	-399.23	145.08	300.75	-491.87	117.42	334.16	-489.99	87.097	303.23	-493.97	84.287	367.7	-331.2	39.55	413.98	-295.8	37.629	294.26	-230.16	42.095	341.46	-18.463	659.13	131.56	93.103	600.97	135.94	23.842	581.7	148.02	45.97	676.12	116.12	99.687	511.94	153.54	112.82	506.69	279	94.607	313.74	162.77	194.5	265.7	156.39	133.85	246.58	169.55	155.72	331.59	148.85	250.46	115.79	176.57	257.3	135.13	267.52	202.45	56.621	227.49	223.48	41.537	263.66	219.86	32.606	202.08	381.28	111.57	152.29	407.47	144.24	263.21	447.72	179.53	210.97	-117.82	1526.1	310.15	-207.9	1271.6	299.18
275	1.1417	57.389	1247.1	288.22	-44.923	1476.8	474.03	-83.711	1463.1	125.57	-37.787	1803.2	283.27	10.586	962.88	442.05	28.711	981.77	192.31	-191.18	1007.2	323.3	-178.48	1008	243.33	-96.945	892.26	495.05	-74.347	896.42	116.4	-70.404	1059.8	475.36	-76.355	1063.3	140.11	-206.84	966.53	282.76	-171.99	652.11	475.03	-123.34	552.65	438.36	-197.26	565.89	459.34	-83.129	654.06	462.3	-203.54	491.23	445.66	-222.58	498.65	319.26	-358.73	309.1	435.04	-324.48	213.5	388.95	-384.83	245.29	413.68	-300.91	277.51	416.67	-415.97	133.97	388.6	-397.31	146.47	301.11	-490.43	119.94	334.53	-488.94	89.733	303.48	-492.98	86.721	367.97	-330.83	39.679	414.06	-295.64	37.741	294.33	-229.96	41.905	341.42	-11.355	659.01	131.47	100.23	600.95	136.48	30.906	581.6	148.08	53.137	676.09	116.52	106.6	511.69	153.84	119.14	506.44	279.21	99.784	313.49	162.88	199.22	264.52	157.05	138.35	245.98	169.85	161.12	330.75	149.37	253.53	114.43	177.3	260.31	133.6	268.35	204.83	56.344	228.11	225.48	40.846	264.2	221.79	32.112	202.6	384.11	109.1	153.36	410.4	141.15	264.4	451.12	176.16	212.29	-111.96	1525.6	309.6	-201.89	1271	298.82
